Coordinates
version=1
nRows=22
nColumns=24
inDegrees=yes

Units are S.I. units (second, meters, Newtons, ...)
If the header above contains a line with 'inDegrees', this indicates whether rotational values are in degrees (yes) or radians (no).

endheader
time	pelvis_tilt	pelvis_list	pelvis_rotation	pelvis_tx	pelvis_ty	pelvis_tz	lumbar_extension	lumbar_bending	lumbar_rotation	arm_flex_r	arm_add_r	arm_rot_r	elbow_flex_r	pro_sup_r	wrist_flex_r	wrist_dev_r	arm_flex_l	arm_add_l	arm_rot_l	elbow_flex_l	pro_sup_l	wrist_flex_l	wrist_dev_l
     15.35200000	     -9.73424527	     -1.60677955	     -0.00088007	      0.96899431	      0.85713202	      0.09256310	     -6.06710978	     -1.78808142	     -1.24408542	      7.35505761	     -7.44529313	     12.39492827	     24.28922236	     84.95159381	     -9.33007859	    -24.99999983	     11.03360916	     -2.42697331	     -6.02449135	     22.24775570	     35.13186714	    -35.28648703	    -24.99999983
     15.35600000	     -9.89605542	     -1.59608820	     -0.03777226	      0.96654712	      0.85741908	      0.09255756	     -6.24209847	     -1.77308621	     -1.27420783	      7.72720814	     -7.36399052	     12.05056325	     24.31728868	     84.77296263	     -9.47303002	    -24.99999983	     10.96622578	     -2.50793884	     -5.88493147	     23.10711175	     35.43860866	    -35.06016106	    -24.99999983
     15.36000000	     -9.89363038	     -1.59353151	     -0.03586573	      0.96648943	      0.85745207	      0.09260372	     -6.23978998	     -1.77093830	     -1.27239905	      7.72744662	     -7.36352989	     12.05095799	     24.31713302	     84.77302189	     -9.47293021	    -24.99999983	     10.96707250	     -2.50847049	     -5.88488464	     23.10824553	     35.43867349	    -35.06004144	    -24.99999983
     15.36400000	     -9.88984191	     -1.59920450	      0.03688010	      0.96634233	      0.85746400	      0.09274945	     -6.23477543	     -1.78503458	     -1.20178248	      7.69476223	     -7.36545117	     12.06529113	     24.27474283	     84.77250194	     -9.46984345	    -24.99999983	     11.02709567	     -2.49993501	     -5.87640259	     23.19511788	     35.44580777	    -35.04961723	    -24.99999983
     15.36800000	     -9.88723697	     -1.59611768	      0.03840306	      0.96629306	      0.85750698	      0.09279987	     -6.23219902	     -1.78233913	     -1.20033479	      7.69555073	     -7.36523624	     12.06532393	     24.27485697	     84.77244443	     -9.46984469	    -24.99999983	     11.02809536	     -2.50022979	     -5.87627248	     23.19699219	     35.44602034	    -35.04941185	    -24.99999983
     15.37200000	     -9.89313824	     -1.59341797	      0.11098854	      0.96600448	      0.85751957	      0.09276778	     -6.23763965	     -1.78736070	     -1.12753070	      7.68004150	     -7.38742470	     12.06172608	     24.23536162	     84.76457541	     -9.47249700	    -24.99999983	     11.08710333	     -2.46968509	     -5.86294938	     23.34087337	     35.46237901	    -35.03217319	    -24.99999983
     15.37600000	     -9.88375730	     -1.58602629	      0.11479793	      0.96595777	      0.85756765	      0.09276408	     -6.22816122	     -1.78043385	     -1.12322356	      7.68757911	     -7.38703153	     12.06005247	     24.23786734	     84.76347871	     -9.47319777	    -24.99999983	     11.09420866	     -2.47066712	     -5.86156441	     23.35794617	     35.46461740	    -35.03009123	    -24.99999983
     15.38000000	     -9.88152091	     -1.58349555	      0.11620447	      0.96591336	      0.85757448	      0.09283955	     -6.22610769	     -1.77837770	     -1.12208584	      7.68788544	     -7.38737068	     12.05983317	     24.23770020	     84.76331850	     -9.47327226	    -24.99999983	     11.09604934	     -2.46997615	     -5.86129294	     23.36146118	     35.46507144	    -35.02972920	    -24.99999983
     15.38400000	    -10.07546940	     -1.56189351	      0.13160129	      0.96306925	      0.85787810	      0.09242745	     -6.43391257	     -1.75563785	     -1.09510606	      8.01237930	     -7.44146477	     11.86824889	     24.38691313	     84.66669917	     -9.54384988	    -24.99999983	     11.08148072	     -2.46404012	     -5.78254631	     24.45666806	     35.62023502	    -34.89419124	    -24.99999983
     15.38800000	    -10.06296647	     -1.55711954	      0.13991237	      0.96305390	      0.85792454	      0.09247734	     -6.42103725	     -1.75205729	     -1.08703236	      8.01241486	     -7.43700301	     11.87133340	     24.38343446	     84.66693470	     -9.54307603	    -24.99999983	     11.09534493	     -2.47155063	     -5.78235486	     24.47105417	     35.61949549	    -34.89393207	    -24.99999983
     15.39200000	    -10.06913747	     -1.57313453	      0.22248677	      0.96284791	      0.85792612	      0.09276516	     -6.42622264	     -1.77830251	     -1.00841582	      7.96953644	     -7.42690766	     11.88978921	     24.32778795	     84.66565606	     -9.53916515	    -24.99999983	     11.16353892	     -2.47043815	     -5.77714555	     24.60282783	     35.61819612	    -34.89050826	    -24.99999983
     15.39600000	    -10.05658859	     -1.56474612	      0.22622790	      0.96283455	      0.85799115	      0.09276217	     -6.41329278	     -1.77042844	     -1.00415923	      7.97379943	     -7.42437288	     11.88990980	     24.32747229	     84.66509324	     -9.53925988	    -24.99999983	     11.17629055	     -2.47284760	     -5.77604125	     24.62363358	     35.61897199	    -34.88989092	    -24.99999983
     15.40000000	    -10.07985102	     -1.57579674	      0.32184869	      0.96230201	      0.85810428	      0.09287279	     -6.43647281	     -1.79238797	     -0.91034814	      7.95053777	     -7.44149553	     11.88653592	     24.27540591	     84.65629702	     -9.54143269	    -24.99999983	     11.24750031	     -2.44653403	     -5.76669947	     24.87213653	     35.63126029	    -34.88012721	    -24.99999983
     15.40400000	    -10.06784489	     -1.56538982	      0.31999158	      0.96233946	      0.85795796	      0.09289638	     -6.42496050	     -1.78198576	     -0.91151954	      7.96077581	     -7.43969615	     11.88404657	     24.27980793	     84.65509599	     -9.54228843	    -24.99999983	     11.25851340	     -2.44966215	     -5.76549949	     24.89870503	     35.63302737	    -34.87903334	    -24.99999983
     15.40800000	    -10.30363807	     -1.55189878	      0.26937655	      0.95899633	      0.85837892	      0.09270601	     -6.67907560	     -1.76003050	     -0.95107355	      8.40433144	     -7.46519339	     11.69844164	     24.46830812	     84.56855709	     -9.60864400	    -24.99999983	     11.12592297	     -2.51971849	     -5.71671655	     26.31837662	     35.71533610	    -34.82756462	    -24.99999983
     15.41200000	    -10.29011014	     -1.56829028	      0.32883109	      0.95896077	      0.85837172	      0.09308527	     -6.66431475	     -1.78477495	     -0.89678038	      8.36343288	     -7.42333849	     11.72952083	     24.41717034	     84.57241714	     -9.60066273	    -24.99999983	     11.19141991	     -2.52804597	     -5.72117174	     26.42124197	     35.68556318	    -34.84026680	    -24.99999983
     15.41600000	    -10.26853100	     -1.55916068	      0.32821857	      0.95901620	      0.85850013	      0.09304238	     -6.64175162	     -1.77560300	     -0.89680128	      8.35379891	     -7.42388021	     11.73121524	     24.40921540	     84.57226116	     -9.60024406	    -24.99999983	     11.22652375	     -2.53520400	     -5.72558797	     26.45363891	     35.68013928	    -34.84251468	    -24.99999983
     15.42000000	    -10.28350988	     -1.57749477	      0.45632414	      0.95878953	      0.85846472	      0.09329292	     -6.65487066	     -1.80946149	     -0.77282228	      8.28809187	     -7.43895747	     11.74459736	     24.33495101	     84.56909534	     -9.59799621	    -24.99999983	     11.33357976	     -2.50123978	     -5.76726819	     26.69977506	     35.62962454	    -34.86271302	    -24.99999983
     15.42400000	    -10.42463599	     -1.66764990	      0.27004487	      0.95675535	      0.85840981	      0.09541075	     -6.81176912	     -1.87938396	     -0.97590410	      8.85176638	     -7.12377729	     12.39095590	     24.10688640	     84.03638351	     -9.92625087	    -24.99999983	     10.10963443	     -3.87303756	     -1.88157332	     30.29086780	     30.09912363	    -37.47341823	    -24.99999983
     15.42800000	    -10.40968189	     -1.65886612	      0.27535681	      0.95678004	      0.85846626	      0.09535625	     -6.79619207	     -1.87115410	     -0.96977936	      8.84765586	     -7.12340897	     12.39117808	     24.10444089	     84.03738058	     -9.92562829	    -24.99999983	     10.13082936	     -3.87262978	     -1.88182907	     30.30892160	     30.10170491	    -37.47324678	    -24.99999983
     15.43200000	    -10.41482645	     -1.66335877	      0.37883469	      0.95658053	      0.85848471	      0.09543366	     -6.79943941	     -1.88808605	     -0.86796211	      8.78381978	     -7.16038237	     12.38897478	     24.05805917	     84.04275370	     -9.92208604	    -24.99999983	     10.22554550	     -3.82866588	     -1.88199729	     30.47237570	     30.12872231	    -37.46954004	    -24.99999983
     15.43600000	    -10.40042534	     -1.65327781	      0.38044243	      0.95658917	      0.85857095	      0.09535623	     -6.78443980	     -1.87806461	     -0.86520864	      8.78291099	     -7.15993027	     12.38731692	     24.06011664	     84.04322049	     -9.92216809	    -24.99999983	     10.24661099	     -3.82791857	     -1.88175768	     30.50009702	     30.13400217	    -37.46859062	    -24.99999983
